<?xml version="1.0" encoding="UTF-8" standalone="no"?>
<!-- Created with Inkscape (http://www.inkscape.org/) -->

<svg
   width="32"
   height="32"
   viewBox="0 0 32 32"
   version="1.1"
   id="svg1"
   xmlns="http://www.w3.org/2000/svg"
   xmlns:svg="http://www.w3.org/2000/svg">
  <defs
     id="defs1" />
  <g
     id="layer1">
    <path
       d="m 15.884766,0.44140625 c -0.366801,0.14117516 -0.41689,0.49898429 0.0098,1.14062495 0.412635,-0.64790447 0.357314,-1.00594754 -0.0098,-1.14062495 z"
       style="display:inline;mix-blend-mode:hard-light;fill:#ee0000;fill-opacity:1"
       id="path2" />
    <path
       d="m 15.894531,1.5820312 c -0.577366,0.9065604 -2.085404,2.3848858 -4.910156,4.5839844 0.105573,0.837965 0.05152,1.96093 -0.203125,3.4199219 C 9.3105688,9.4058531 8.2205653,9.1316313 7.4492187,8.7871094 4.5246018,10.851374 2.6719132,11.867017 1.6367187,12.15625 c 0.6837275,0.829688 1.6236031,2.720901 2.8417969,6.085937 0.829777,0.158567 1.8801257,0.556676 3.1894531,1.25 -0.62525,1.341965 -1.2234315,2.292793 -1.7890625,2.919922 1.0593668,3.418768 1.4506271,5.495827 1.40625,6.570313 1.000181,-0.393989 3.0903848,-0.70353 6.6679688,-0.822266 0.407318,-0.740012 1.110171,-1.617793 2.173828,-2.648437 1.084671,1.010661 1.804864,1.873058 2.226563,2.605468 3.576946,0.04899 5.671365,0.317335 6.679687,0.691407 -0.06532,-1.07323 0.287179,-3.15616 1.279297,-6.59375 -0.57785,-0.615951 -1.19233,-1.556935 -1.84375,-2.886719 1.29535,-0.718521 2.337655,-1.137861 3.164062,-1.3125 C 28.785292,14.627274 29.68802,12.717754 30.355469,11.875 29.31445,11.605422 27.441775,10.627327 24.478516,8.6210938 23.713829,8.9807384 22.629723,9.2775759 21.162109,9.4863281 20.878659,8.0308307 20.803018,6.9087039 20.892578,6.0683594 18.027019,3.92575 16.489713,2.4771147 15.894531,1.5820312 Z"
       style="display:inline;mix-blend-mode:hard-light;fill:#ffffff;fill-opacity:1"
       id="path1" />
    <path
       d="m 16.285156,0.36914063 c -0.158325,0.005983 -0.292059,0.0305706 -0.40039,0.0722656 0.367075,0.13467606 0.422396,0.49272695 0.0098,1.14062497 0.595182,0.8950843 2.132485,2.3437167 4.998047,4.4863282 -0.08956,0.8403454 -0.01392,1.9624698 0.269531,3.4179687 1.467615,-0.2087524 2.55172,-0.5055893 3.316407,-0.8652343 2.963262,2.0062352 4.835933,2.9843282 5.876953,3.2539062 -0.667449,0.842755 -1.570176,2.752271 -2.722657,6.140625 -0.826408,0.174639 -1.868711,0.593978 -3.164062,1.3125 0.651421,1.329785 1.265899,2.270768 1.84375,2.886719 -0.992119,3.437594 -1.344618,5.520519 -1.279297,6.59375 -1.008323,-0.374072 -3.102737,-0.642421 -6.679687,-0.691407 -0.421699,-0.732411 -1.141891,-1.594806 -2.226563,-2.605468 -1.063658,1.030645 -1.76651,1.908424 -2.173828,2.648437 -3.577588,0.118736 -5.6677868,0.428277 -6.6679688,0.822266 C 7.3295683,27.907935 6.938274,25.83088 5.8789062,22.412109 6.4445377,21.784979 7.042718,20.834153 7.6679687,19.492187 6.3586399,18.798862 5.3082934,18.400754 4.4785156,18.242187 3.2603206,14.877147 2.3204468,12.985939 1.6367187,12.15625 2.6719142,11.867017 4.5245988,10.851376 7.4492187,8.7871094 8.220566,9.1316317 9.3105673,9.4058529 10.78125,9.5859375 11.035897,8.1269441 11.089948,7.0039814 10.984375,6.1660156 13.80913,3.9669148 15.317164,2.4885925 15.894531,1.5820312 15.467895,0.94041878 15.517982,0.5825752 15.884766,0.44140625 15.764774,0.39738263 15.611134,0.37685946 15.429688,0.37890625 13.675702,0.39869186 9.3001587,2.4722488 7.1347656,4.6738281 4.1185626,6.2557975 0.47297445,10.44996 0.546875,11.8125 c -0.8412806,1.073446 -0.24694708,6.603992 1.3242187,9.626953 0.5713315,3.356976 3.4325781,8.120218 4.7519532,8.472656 0.7602862,1.132164 6.2057071,2.27779 9.5664061,1.716797 3.370184,0.493538 8.784705,-0.756382 9.525391,-1.902344 1.311829,-0.375612 4.081996,-5.195955 4.58789,-8.564453 1.511807,-3.051918 1.9977,-8.590883 1.136719,-9.65039 0.04731,-1.3642 -3.681482,-5.487959 -6.728516,-7.0097659 -2.15926,-2.110632 -6.430471,-4.05984203 -8.259765,-4.13281247 -0.05845,-0.002332 -0.113241,-0.001994 -0.166016,0 z"
       style="display:inline;mix-blend-mode:hard-light;fill:#e32e11;fill-opacity:1"
       id="path139" />
    <path
       d="M 21.162109,9.4863281 C 19.785618,9.6821193 18.082315,9.80173 15.974609,9.8222656 13.866464,9.8428056 12.161443,9.7549417 10.78125,9.5859375 10.542147,10.955875 10.130089,12.613293 9.4980469,14.625 c -0.6319636,2.011457 -1.2428038,3.606731 -1.8300782,4.867187 1.2288493,0.65071 2.6788863,1.552872 4.3964843,2.775391 1.716928,1.222043 3.045385,2.296425 4.0625,3.244141 0.998575,-0.967583 2.306651,-2.066588 4,-3.322266 1.693798,-1.25601 3.125703,-2.186769 4.341797,-2.861328 -0.61175,-1.248804 -1.254711,-2.831213 -1.925781,-4.830078 -0.670912,-1.998394 -1.115078,-3.646939 -1.38086,-5.0117189 z"
       style="display:inline;mix-blend-mode:hard-light;fill:#fc0000;fill-opacity:1"
       id="path112" />
  </g>
</svg>
